<svg xmlns="http://www.w3.org/2000/svg" width="400" height="250" viewBox="0 0 400 250"><rect width="400" height="250" fill="#f2f6f8"/><path d="M30 67c75 0 91 30 161 30s95-30 179-30M30 184c75 0 91-30 161-30s95 30 179 30" fill="none" stroke="#315c77" stroke-width="3"/><g fill="none" stroke="#96b0c1" stroke-width="1.4"><path d="M32 89c80 0 93 22 159 22s98-22 177-22M32 109c80 0 93 11 159 11s98-11 177-11M32 129h336M32 149c80 0 93-10 159-10s98 10 177 10M32 169c80 0 93-20 159-20s98 20 177 20"/></g><path d="M76 129h38m-8-5 8 5-8 5m177-5h38m-8-5 8 5-8 5M191 57v28m-5-6 5 6 5-6" fill="none" stroke="#315c77" stroke-width="2"/><text x="155" y="43" fill="#567081" font-family="Arial,sans-serif" font-size="12">compliant wall</text><text x="20" y="231" fill="#687f8e" font-family="Arial,sans-serif" font-size="11" letter-spacing="1">FLOW · CONCEPTUAL SCHEMATIC</text></svg>
